<?xml version="1.0" encoding="iso-8859-1"?>
<!-- Generator: Adobe Illustrator 19.0.0, SVG Export Plug-In . SVG Version: 6.00 Build 0)  -->
<svg xmlns="http://www.w3.org/2000/svg" xmlns:xlink="http://www.w3.org/1999/xlink" version="1.1" id="Capa_1" x="0px" y="0px" viewBox="0 0 297 297" style="enable-background:new 0 0 297 297;" xml:space="preserve" width="512px" height="512px">
<g>
	<path d="M214.5,65.75C214.5,29.437,185.063,0,148.75,0h-0.5C111.937,0,82.5,29.437,82.5,65.75v165.5   c0,36.313,29.437,65.75,65.75,65.75h0.5c36.313,0,65.75-29.437,65.75-65.75V65.75z M114.5,65.75   c0-18.609,15.474-33.75,34.083-33.75h0.25c4.418,0,8,3.582,8,8s-3.582,8-8,8h-0.25c-9.787,0-18.083,7.963-18.083,17.75V108   c0,4.418-3.582,8-8,8s-8-3.582-8-8V65.75z M149.083,281h-0.5C121.15,281,98.5,258.683,98.5,231.25V157h100v74.25   C198.5,258.683,176.516,281,149.083,281z" fill="#e97770"/>
	<polygon points="149.268,232.007 148.854,234 148.605,234 148.191,231.843 136.406,188 121.809,188 141.244,249 156.338,249    175.857,188 161.219,188  " fill="#e97770"/>
</g>
<g>
</g>
<g>
</g>
<g>
</g>
<g>
</g>
<g>
</g>
<g>
</g>
<g>
</g>
<g>
</g>
<g>
</g>
<g>
</g>
<g>
</g>
<g>
</g>
<g>
</g>
<g>
</g>
<g>
</g>
</svg>
